<?xml version="1.0" standalone="no"?>
<!DOCTYPE svg PUBLIC "-//W3C//DTD SVG 20010904//EN"
 "http://www.w3.org/TR/2001/REC-SVG-20010904/DTD/svg10.dtd">
<svg version="1.0" xmlns="http://www.w3.org/2000/svg"
 width="512.000000pt" height="512.000000pt" viewBox="0 0 512.000000 512.000000"
 preserveAspectRatio="xMidYMid meet">
<metadata>
Created by potrace 1.11, written by Peter Selinger 2001-2013
</metadata>
<g transform="translate(0.000000,512.000000) scale(0.100000,-0.100000)"
fill="#000000" stroke="none">
<path d="M2346 4646 c-8 -14 -25 -42 -37 -63 -12 -20 -222 -384 -467 -807
-245 -424 -450 -779 -456 -791 -6 -11 -30 -51 -53 -90 -45 -77 -242 -416 -278
-480 -13 -22 -56 -96 -95 -165 -40 -69 -81 -141 -92 -160 -11 -19 -41 -71 -67
-115 -25 -44 -50 -88 -56 -97 -5 -10 -73 -126 -150 -259 -77 -133 -147 -253
-155 -268 -96 -166 -173 -299 -180 -311 -6 -8 -39 -66 -75 -128 l-65 -113 97
-167 97 -167 2238 0 2238 0 95 162 c52 89 95 167 95 174 0 6 -31 63 -68 127
-37 64 -73 126 -80 137 -62 107 -254 440 -274 475 -14 25 -76 132 -137 238
-61 106 -120 207 -130 225 -10 17 -51 88 -91 157 -40 69 -83 143 -95 165 -13
22 -94 164 -182 315 -167 288 -636 1100 -671 1160 -20 35 -105 182 -121 210
-5 8 -41 70 -80 138 -39 68 -123 213 -187 323 l-116 199 -193 0 -193 0 -16
-24z m264 -871 c29 -49 62 -108 75 -130 12 -22 104 -182 205 -355 101 -173
194 -335 208 -360 14 -25 35 -61 47 -80 12 -19 25 -42 28 -50 4 -8 17 -31 28
-50 12 -19 46 -78 76 -130 29 -52 58 -102 63 -110 27 -44 76 -128 86 -147 38
-69 50 -89 60 -103 7 -8 24 -37 39 -65 14 -27 36 -66 47 -85 51 -88 278 -479
299 -515 12 -22 35 -62 51 -90 16 -27 33 -57 38 -65 60 -99 210 -363 210 -370
0 -6 5 -10 10 -10 6 0 10 -7 10 -15 0 -13 -189 -15 -1640 -15 l-1640 0 27 48
c50 85 434 747 443 762 26 44 226 390 242 420 11 19 34 60 51 90 17 30 34 57
39 58 4 2 8 8 8 14 0 5 16 37 36 71 20 34 45 77 55 94 10 18 69 119 131 225
61 106 119 208 129 226 9 18 22 38 27 45 5 7 22 37 39 67 16 30 41 73 55 95
13 22 28 47 31 55 4 8 16 29 26 46 11 18 53 90 94 160 213 369 210 364 213
361 1 -1 26 -42 54 -92z"/>
</g>
</svg>
